<svg xmlns="http://www.w3.org/2000/svg" width="174" height="21"><defs><clipPath id="a"><path data-name="Clip 6" d="M0 21h174V0H0z" fill="none"/></clipPath></defs><g data-name="Aviatrix Logo"><path data-name="Fill 1" d="M44.597 20.999a14.022 14.022 0 01-3.154-.326 7.174 7.174 0 01-2.368-.973 4.535 4.535 0 01-1.495-1.6 4.57 4.57 0 01-.524-2.226 4.043 4.043 0 01.609-2.208 5.509 5.509 0 011.739-1.672 11.548 11.548 0 012.721-1.211 29.365 29.365 0 013.561-.843c1.31-.23 2.743-.421 4.257-.57 1.568-.152 3.19-.278 4.82-.374V7.568a3.574 3.574 0 00-.315-1.537 3.572 3.572 0 00-.879-1.16 5.069 5.069 0 00-1.325-.83 9.262 9.262 0 00-1.646-.536 13.694 13.694 0 00-1.862-.29 21.52 21.52 0 00-1.96-.09 19.435 19.435 0 00-2.413.138 17.188 17.188 0 00-2.034.372c-.617.155-1.226.341-1.81.551-.563.2-1.15.427-1.744.666V2.865a44.961 44.961 0 013.888-.876 24.782 24.782 0 014.388-.374 18.516 18.516 0 013.673.346 9.348 9.348 0 012.965 1.108 5.755 5.755 0 011.979 1.966 5.613 5.613 0 01.721 2.928v12.67h-1.626v-2.068a15.336 15.336 0 01-2.145.978 22.132 22.132 0 01-2.532.775 23.822 23.822 0 01-2.735.5 21.873 21.873 0 01-2.754.181zm10.166-10.5c-2.847.163-5.314.4-7.333.693a29.643 29.643 0 00-4.969 1.1 7.6 7.6 0 00-2.828 1.522 2.688 2.688 0 00-.9 1.971 2.914 2.914 0 00.439 1.591 3.514 3.514 0 001.27 1.169 6.788 6.788 0 002.007.708 13.586 13.586 0 002.652.237 16.339 16.339 0 001.792-.1c.624-.069 1.245-.165 1.846-.286s1.224-.269 1.81-.433 1.145-.348 1.682-.551a13.681 13.681 0 001.437-.638 6.971 6.971 0 001.1-.695z" fill="#fff"/><path data-name="Fill 3" d="M70.396 19.384h-2.311L59.611 1.615h1.729l7.945 16.657 7.943-16.657h1.717z" fill="#fff"/><path data-name="Clip 6" d="M0 21h174V0H0z" fill="none"/><g data-name="Aviatrix Logo" clip-path="url(#a)" fill="#fff"><path data-name="Fill 5" d="M83.778 19.384h1.611V1.615h-1.611z"/><path data-name="Fill 7" d="M96.152 20.999a14.03 14.03 0 01-3.155-.326 7.177 7.177 0 01-2.366-.973 4.519 4.519 0 01-1.495-1.6 4.57 4.57 0 01-.525-2.226 4.043 4.043 0 01.609-2.208 5.509 5.509 0 011.739-1.672 11.515 11.515 0 012.721-1.211 29.365 29.365 0 013.561-.843c1.31-.23 2.743-.421 4.257-.57 1.568-.152 3.19-.278 4.82-.374V7.568a3.574 3.574 0 00-.315-1.537 3.589 3.589 0 00-.879-1.16 5.1 5.1 0 00-1.325-.83 9.292 9.292 0 00-1.646-.536 13.694 13.694 0 00-1.862-.29c-.655-.06-1.314-.09-1.96-.09a19.481 19.481 0 00-2.414.138 17.3 17.3 0 00-2.034.372c-.617.156-1.226.341-1.808.551-.553.2-1.124.417-1.746.666V2.865a44.95 44.95 0 013.889-.876 24.773 24.773 0 014.386-.374 18.524 18.524 0 013.674.346 9.324 9.324 0 012.964 1.108 5.748 5.748 0 011.981 1.966 5.613 5.613 0 01.721 2.928v12.67h-1.626v-2.068a15.422 15.422 0 01-2.145.978 22.312 22.312 0 01-2.532.775 23.758 23.758 0 01-2.736.5 21.862 21.862 0 01-2.753.181zm10.166-10.5c-2.847.163-5.314.4-7.333.693a29.643 29.643 0 00-4.969 1.1 7.6 7.6 0 00-2.828 1.522 2.688 2.688 0 00-.9 1.971 2.914 2.914 0 00.439 1.591 3.52 3.52 0 001.268 1.169 6.824 6.824 0 002.008.708 13.594 13.594 0 002.654.237 16.366 16.366 0 001.791-.1c.622-.069 1.243-.165 1.844-.286s1.223-.268 1.813-.433 1.145-.348 1.681-.551a13.681 13.681 0 001.437-.638 6.981 6.981 0 001.1-.695z"/><path data-name="Fill 8" d="M120.828 3.089v16.295h-1.6V3.089h-8.061V1.615h17.722v1.474z"/><path data-name="Fill 9" d="M145.591 3.147a8.719 8.719 0 00-1.677-.132 9.928 9.928 0 00-2.666.346 10.585 10.585 0 00-2.317.94 11.528 11.528 0 00-1.982 1.38 14.3 14.3 0 00-1.643 1.672v12.031h-1.584V2.056h1.584v3.531a14.665 14.665 0 011.841-1.6 12.661 12.661 0 012.095-1.256 12.119 12.119 0 012.31-.816 10.5 10.5 0 012.5-.3q.442 0 .8.019a13.011 13.011 0 011.215.12c.178.025.359.055.545.088v1.551q-.367-.114-1.02-.246"/><path data-name="Fill 10" d="M148.222 19.384h1.611V1.615h-1.611z"/><path data-name="Fill 11" d="M164.328 11.353l-7.626 8.031h-2.035l8.656-9.117-8.23-8.652h2.034l7.2 7.6 7.227-7.6h2.033l-8.23 8.652L174 19.384h-2.021z"/><path data-name="Fill 12" d="M26.511 14.174L23.7 10.5l-5.2-6.819-1.59-2.073a4.02 4.02 0 00-6.431 0L8.894 3.681 3.684 10.5.877 14.174a4.3 4.3 0 00.684 5.926 4 4 0 002.529.9 4.043 4.043 0 003.219-1.609l1.585-2.073 4.149-5.431-2.025-4.279 1.721 2.246.956 1.18 4.8 6.284 1.584 2.073A4.046 4.046 0 0023.3 21a4 4 0 002.529-.9 4.3 4.3 0 00.683-5.922"/></g></g></svg>