<?xml version="1.0" encoding="UTF-8"?>
<!-- Generated by Pixelmator Pro 3.6.1 -->
<svg width="1920" height="1080" viewBox="0 0 1920 1080" xmlns="http://www.w3.org/2000/svg">
    <clipPath id="clipPath1">
        <path clip-rule="evenodd" d="M 0 792.5 C 0 907.886551 0 965.579834 24.22576 1008.838036 C 41.347168 1039.410507 66.589493 1064.652832 97.161964 1081.77424 C 140.420166 1105.999999 198.113449 1105.999999 313.5 1105.999999 L 1606.5 1106 C 1721.886597 1106 1779.579834 1106 1822.838013 1081.77424 C 1853.410522 1064.652832 1878.652832 1039.410507 1895.77417 1008.838036 C 1919.999878 965.579834 1919.999878 907.886551 1919.999878 792.5 L 1920 313.5 C 1920 198.113464 1920 140.420166 1895.774292 97.161987 C 1878.652832 66.589478 1853.410522 41.347168 1822.838135 24.22583 C 1779.579956 0.000122 1721.886597 0.000122 1606.500122 0.000122 L 313.5 0 C 198.113449 0 140.420166 0 97.161964 24.225708 C 66.589493 41.347168 41.347168 66.589478 24.22576 97.161926 C 1e-06 140.420105 1e-06 198.113403 1e-06 313.499939 Z"/>
    </clipPath>
    <g id="logo" clip-path="url(#clipPath1)">
        <path id="background" fill="#f7efd5" fill-rule="evenodd" stroke="none" d="M 0 1080 L 1920 1080 L 1920 0 L 0 0 Z"/>
        <g id="g1" opacity="0.705456">
            <path id="path1" fill="none" stroke="#000000" stroke-width="41.299282" d="M 959.193481 742.504028 C 958.62207 743.805664 957.121033 985.236694 958.192688 1036.640015 C 958.537537 1053.181396 984.431824 1039.6427 990.314331 1034.243896 C 1016.440918 1010.265808 1048.571655 985.246216 1086.679321 974.69104 C 1120.473022 965.330811 1159.73645 967.655518 1192.221924 987.552246 C 1199.555664 992.044006 1220.360352 989.138855 1226.638062 985.217651 C 1233.483032 980.9422 1242.672852 967.985718 1242.698853 957.202637 C 1242.845703 896.38147 1243.185913 756.294922 1242.698853 712.071411 C 1242.184937 665.404846 1167.371826 631.208435 1093.5625 642.00238 C 1037.881958 650.145264 983.14978 687.937256 959.193481 742.504028 Z"/>
            <path id="path2" fill="none" stroke="#000000" stroke-width="41.299282" d="M 961.657532 742.504028 C 962.229004 743.805664 963.72998 985.236694 962.658325 1036.640015 C 962.313477 1053.181396 936.419189 1039.6427 930.536682 1034.243896 C 904.410095 1010.265808 872.279358 985.246216 834.171692 974.69104 C 800.37793 965.330811 761.114563 967.655518 728.629089 987.552246 C 721.295349 992.044006 700.490723 989.138855 694.213013 985.217651 C 687.368042 980.9422 678.178223 967.985718 678.152161 957.202637 C 678.00531 896.38147 677.6651 756.294922 678.152161 712.071411 C 678.666138 665.404846 753.479187 631.208435 827.288452 642.00238 C 882.969116 650.145264 937.701233 687.937256 961.657532 742.504028 Z"/>
        </g>
        <g id="g2" opacity="0.705456">
            <g id="Right-side">
                <path id="path3" fill="none" stroke="#000000" stroke-width="29.21899" stroke-linecap="round" stroke-linejoin="round" d="M 1908.141479 1280 C 1855.855225 1280.116699 1705.719116 1233.249634 1686.077148 1233.249634 C 1624.755859 1233.249634 1556.026611 1083.480591 1651.988403 1069.623291 C 1742.13855 1056.605103 1784.604004 923.05957 1738.671387 923.980652 C 1644.38208 925.871399 1586.56665 892.936584 1550.956543 838.873352 C 1544.672363 829.332764 1576.128662 789.188599 1571.14917 778.407349 C 1564.821655 764.70752 1522.435181 780.012451 1517.926636 764.585327 C 1510.25 738.317505 1504.977051 709.769592 1501.313599 679.704102 C 1498.055908 652.968506 1462.361816 643.380615 1461.090942 614.781006 C 1460.000854 590.251709 1493.145142 546.88623 1492.75354 521.718445 C 1492.560547 509.322327 1492.409546 496.889771 1492.258545 484.461243 C 1488.054688 138.636047 1616.454346 62.292969 1820.972168 60.6026 C 1993.902466 59.173279 2157.477539 235.595337 2157.477539 469.685608 C 2157.477539 624.787964 2082.946777 747.817078 1984.151489 825.840332 C 1997.547852 856.042297 2006.511353 889.542358 2010.408569 916.630127 C 2035.583862 1091.609619 2019.09021 1279.752563 1908.141479 1280 Z"/>
                <path id="path4" fill="#000000" fill-rule="evenodd" stroke="none" d="M 2210.071045 254.413452 C 2210.071045 118.323059 2056.796143 8 1867.721924 8 C 1678.647705 8 1487.965454 117.950317 1488.362061 307.007629 C 1488.450439 349.195618 1512.683472 369.576294 1547.773926 391.742737 C 1594.667603 421.365051 1693.43335 462.912354 1722.113892 427.77948 C 1744.891357 399.877808 1852.061157 577.770264 1904.245605 577.770264 C 2093.319824 577.770264 2210.071045 390.503845 2210.071045 254.413452 Z"/>
                <path id="path5" fill="#000000" fill-rule="evenodd" stroke="none" d="M 1642.573364 500.826965 C 1642.573364 484.689758 1631.817261 471.607971 1618.548828 471.607971 C 1605.280518 471.607971 1594.524292 484.689758 1594.524292 500.826965 C 1594.524292 516.964172 1605.280518 530.045959 1618.548828 530.045959 C 1631.817261 530.045959 1642.573364 516.964172 1642.573364 500.826965 Z"/>
            </g>
            <g id="Left-side">
                <path id="path6" fill="none" stroke="#000000" stroke-width="29.21899" stroke-linecap="round" stroke-linejoin="round" d="M 11.352822 1280 C 63.639072 1280.116699 213.775177 1233.249634 233.417145 1233.249634 C 294.738434 1233.249634 363.467682 1083.480591 267.505951 1069.623291 C 177.35582 1056.605103 134.890259 923.05957 180.822968 923.980652 C 275.112213 925.871399 332.927612 892.936584 368.537781 838.873352 C 374.82196 829.332764 343.365662 789.188599 348.345154 778.407349 C 354.672668 764.70752 397.059174 780.012451 401.567688 764.585327 C 409.244263 738.317505 414.517212 709.769592 418.180695 679.704102 C 421.438477 652.968506 457.132446 643.380615 458.403351 614.781006 C 459.493408 590.251709 426.349182 546.88623 426.740814 521.718445 C 426.933777 509.322327 427.084717 496.889771 427.235779 484.461243 C 431.439575 138.636047 303.039917 62.292969 98.522156 60.6026 C -74.408195 59.173279 -237.983185 235.595337 -237.983185 469.685608 C -237.983185 624.787964 -163.452515 747.817078 -64.65712 825.840332 C -78.053558 856.042297 -87.01709 889.542358 -90.914268 916.630127 C -116.089607 1091.609619 -99.595901 1279.752563 11.352822 1280 Z"/>
                <path id="path7" fill="#000000" fill-rule="evenodd" stroke="none" d="M -290.576721 254.413452 C -290.576721 118.323059 -137.301865 8 51.772411 8 C 240.846588 8 431.528809 117.950317 431.132294 307.007629 C 431.043854 349.195618 406.810913 369.576294 371.720337 391.742737 C 324.826691 421.365051 226.06102 462.912354 197.380371 427.77948 C 174.602921 399.877808 67.433151 577.770264 15.248673 577.770264 C -173.825592 577.770264 -290.576721 390.503845 -290.576721 254.413452 Z"/>
                <path id="path8" fill="#000000" fill-rule="evenodd" stroke="none" d="M 276.920959 500.826965 C 276.920959 484.689758 287.677094 471.607971 300.945465 471.607971 C 314.213837 471.607971 324.969971 484.689758 324.969971 500.826965 C 324.969971 516.964172 314.213837 530.045959 300.945465 530.045959 C 287.677094 530.045959 276.920959 516.964172 276.920959 500.826965 Z"/>
            </g>
        </g>
        <g id="Font" opacity="0.705456">
            <text id="text1" xml:space="preserve" x="654.5" y="580" font-family="Toppan Bunkyu Midashi Gothic" font-size="203" font-weight="700" fill="#000000">ガイド</text>
            <text id="1on1" xml:space="preserve" x="557.802" y="321" font-family="Toppan Bunkyu Midashi Gothic" font-size="339" font-weight="700" fill="#000000">1on1</text>
        </g>
    </g>
</svg>
