<?xml version="1.0" encoding="UTF-8"?>
<!-- Generated by Pixelmator Pro 3.6.1 -->
<svg width="1000" height="1000" viewBox="0 0 1000 1000" xmlns="http://www.w3.org/2000/svg">
    <clipPath id="clipPath1">
        <path clip-rule="evenodd" d="M 0 821.800003 C 0 887.388153 0 920.18222 13.770432 944.771095 C 23.5026 962.149132 37.850868 976.4974 55.228905 986.22957 C 79.81778 1000.000002 112.611855 1000.000002 178.199997 1000.000002 L 821.799988 1000 C 887.388123 1000 920.18219 1000 944.771057 986.229568 C 962.149109 976.4974 976.497375 962.149132 986.229553 944.771095 C 1000 920.18222 1000 887.388145 1000 821.800003 L 1000 178.200012 C 1000 112.611877 1000 79.81781 986.229553 55.228943 C 976.497375 37.850891 962.149109 23.502625 944.771057 13.770447 C 920.18219 0 887.388123 0 821.799988 0 L 178.199997 0 C 112.611847 0 79.81778 0 55.228905 13.770447 C 37.850868 23.502625 23.5026 37.850891 13.77043 55.228943 C -2e-06 79.81781 -2e-06 112.611877 -2e-06 178.200012 Z"/>
    </clipPath>
    <g id="logo" clip-path="url(#clipPath1)">
        <path id="background" fill="#f7efd5" fill-rule="evenodd" stroke="none" d="M 0 1000 L 1000 1000 L 1000 0 L 0 0 Z"/>
        <g id="g1" opacity="0.705456">
            <path id="path1" fill="none" stroke="#000000" stroke-width="20.475805" d="M 499.362335 498.820526 C 499.07901 499.465881 498.334839 619.165161 498.86615 644.650452 C 499.037109 652.851563 511.875275 646.13916 514.791748 643.462524 C 527.745117 631.574341 543.675232 619.169922 562.568665 613.936768 C 579.323303 609.296021 598.789673 610.448608 614.895691 620.313232 C 618.531677 622.540161 628.846436 621.099854 631.958862 619.155762 C 635.352539 617.036011 639.908752 610.612305 639.921692 605.266113 C 639.994507 575.111572 640.163147 505.657959 639.921692 483.732361 C 639.66687 460.59552 602.575256 443.641235 565.981262 448.992737 C 538.375366 453.029907 511.239655 471.766846 499.362335 498.820526 Z"/>
            <path id="path2" fill="none" stroke="#000000" stroke-width="20.475805" d="M 500.584015 498.820526 C 500.86731 499.465881 501.611511 619.165161 501.08017 644.650452 C 500.90921 652.851563 488.071045 646.13916 485.154572 643.462524 C 472.201233 631.574341 456.271088 619.169922 437.377686 613.936768 C 420.623047 609.296021 401.156616 610.448608 385.050629 620.313232 C 381.414642 622.540161 371.099884 621.099854 367.987457 619.155762 C 364.593781 617.036011 360.037567 610.612305 360.024628 605.266113 C 359.951813 575.111572 359.783173 505.657959 360.024628 483.732361 C 360.279449 460.59552 397.371094 443.641235 433.965057 448.992737 C 461.570984 453.029907 488.706665 471.766846 500.584015 498.820526 Z"/>
        </g>
        <g id="g2" opacity="0.705456">
            <g id="Right-side">
                <path id="path3" fill="none" stroke="#000000" stroke-width="22.901993" stroke-linecap="round" stroke-linejoin="round" d="M 1066.346069 1232 C 1025.363892 1232.091431 907.686401 1195.356934 892.290955 1195.356934 C 844.22699 1195.356934 790.356689 1077.967163 865.57196 1067.105713 C 936.232056 1056.9021 969.516785 952.228333 933.514526 952.950317 C 859.610107 954.432251 814.294128 928.617798 786.38269 886.242737 C 781.457092 878.764771 806.112732 847.299561 802.209778 838.849182 C 797.250244 828.111206 764.027466 840.1073 760.493652 828.015381 C 754.476746 807.426514 750.343811 785.050537 747.472351 761.485046 C 744.918884 740.529663 716.941711 733.014526 715.945618 710.598022 C 715.091187 691.371826 741.069824 657.381775 740.762817 637.655151 C 740.611572 627.938965 740.493286 618.194275 740.374878 608.452759 C 737.079956 337.393188 837.720215 277.555115 998.022278 276.230164 C 1133.56604 275.109863 1261.776855 413.390381 1261.776855 596.871521 C 1261.776855 718.441528 1203.359375 814.872375 1125.923096 876.027405 C 1136.423218 899.69989 1143.448853 925.957397 1146.50354 947.188904 C 1166.236084 1084.338623 1153.308228 1231.80603 1066.346069 1232 Z"/>
                <path id="path4" fill="#000000" fill-rule="evenodd" stroke="none" d="M 1303 428.140137 C 1303 321.471802 1182.862427 235 1034.665039 235 C 886.467712 235 737.01001 321.179626 737.320801 469.363708 C 737.390137 502.430847 756.384033 518.405334 783.888184 535.779541 C 820.643677 558.99762 898.056702 591.562622 920.536743 564.025269 C 938.389832 542.155823 1022.390015 681.588867 1063.29248 681.588867 C 1211.489868 681.588867 1303 534.808472 1303 428.140137 Z"/>
                <path id="path5" fill="#000000" fill-rule="evenodd" stroke="none" d="M 858.192444 621.280273 C 858.192444 608.631836 849.761719 598.378296 839.361877 598.378296 C 828.962097 598.378296 820.531372 608.631836 820.531372 621.280273 C 820.531372 633.928711 828.962097 644.182251 839.361877 644.182251 C 849.761719 644.182251 858.192444 633.928711 858.192444 621.280273 Z"/>
            </g>
            <g id="Left-side">
                <path id="path6" fill="none" stroke="#000000" stroke-width="22.901993" stroke-linecap="round" stroke-linejoin="round" d="M -66.700638 1232 C -25.718414 1232.091431 91.959023 1195.356934 107.3545 1195.356934 C 155.418442 1195.356934 209.288773 1077.967163 134.073486 1067.105713 C 63.413353 1056.9021 30.12863 952.228333 66.130913 952.950317 C 140.035309 954.432251 185.351318 928.617798 213.262741 886.242737 C 218.188309 878.764771 193.5327 847.299561 197.435654 838.849182 C 202.395203 828.111206 235.61795 840.1073 239.151749 828.015381 C 245.168686 807.426514 249.301651 785.050537 252.173111 761.485046 C 254.726563 740.529663 282.703705 733.014526 283.699829 710.598022 C 284.55423 691.371826 258.575623 657.381775 258.882568 637.655151 C 259.033813 627.938965 259.15213 618.194275 259.270538 608.452759 C 262.565491 337.393188 161.925186 277.555115 1.623123 276.230164 C -133.920563 275.109863 -262.13147 413.390381 -262.13147 596.871521 C -262.13147 718.441528 -203.713959 814.872375 -126.277618 876.027405 C -136.777817 899.69989 -143.803482 925.957397 -146.858109 947.188904 C -166.590668 1084.338623 -153.662811 1231.80603 -66.700638 1232 Z"/>
                <path id="path7" fill="#000000" fill-rule="evenodd" stroke="none" d="M -303.354553 428.140137 C -303.354553 321.471802 -183.216934 235 -35.019562 235 C 113.177742 235 262.635437 321.179626 262.324646 469.363708 C 262.25531 502.430847 243.261398 518.405334 215.757248 535.779541 C 179.00177 558.99762 101.58873 591.562622 79.108696 564.025269 C 61.255608 542.155823 -22.744595 681.588867 -63.647053 681.588867 C -211.844421 681.588867 -303.354553 534.808472 -303.354553 428.140137 Z"/>
                <path id="path8" fill="#000000" fill-rule="evenodd" stroke="none" d="M 141.453018 621.280273 C 141.453018 608.631836 149.883728 598.378296 160.283539 598.378296 C 170.68335 598.378296 179.114075 608.631836 179.114075 621.280273 C 179.114075 633.928711 170.68335 644.182251 160.283539 644.182251 C 149.883728 644.182251 141.453018 633.928711 141.453018 621.280273 Z"/>
            </g>
        </g>
        <g id="Font" opacity="0.705456">
            <text id="text1" visibility="hidden" xml:space="preserve" x="282" y="477" font-family="Toppan Bunkyu Midashi Gothic" font-size="144" font-weight="700" fill="#000000">ガイド</text>
            <text id="1on1" visibility="hidden" xml:space="preserve" x="157.584" y="275" font-family="Toppan Bunkyu Midashi Gothic" font-size="288" font-weight="700" fill="#000000">1on1</text>
        </g>
        <g id="g3" opacity="0.705456">
            <path id="path9" fill="#000000" fill-rule="evenodd" stroke="none" d="M 649.400757 834.133301 C 661.296082 840.824463 671.109741 848.407776 681.072144 857.478027 L 682.559021 857.329224 L 696.982178 839.337585 L 697.130859 837.850647 C 685.235474 827.739563 676.016602 821.940613 663.675171 815.100769 L 662.188232 815.249512 L 649.400757 829.523926 L 649.400757 779.860779 L 648.211182 778.671265 L 626.204834 778.671265 L 625.015259 779.712158 L 625.015259 843.798279 L 624.271851 900.895996 L 650.144165 900.895996 L 649.400757 844.095703 Z M 674.083618 787.592834 C 680.031311 792.648315 684.194641 797.555115 688.804077 803.651489 L 690.291016 803.651489 L 698.469055 797.852539 L 698.617798 796.365601 C 694.156982 790.417908 688.95282 785.213745 683.451233 780.604309 L 681.964294 780.75293 L 674.2323 786.254578 Z M 688.060669 778.22522 C 694.008362 783.280701 698.02301 787.592834 702.632446 793.689209 L 704.119385 793.689209 L 711.851318 788.038818 L 712 786.55188 C 707.539307 780.604309 702.781128 775.84613 697.279541 771.236694 L 695.792603 771.385376 L 688.209351 776.886963 Z M 501.452332 853.165894 L 500.708862 899.409058 L 526.432556 899.409058 L 525.689148 852.719849 L 525.689148 818.372009 C 534.461914 810.937378 543.680786 802.461975 553.197083 792.648315 L 553.048401 790.864014 L 534.461914 777.927795 L 532.677612 777.927795 C 505.615692 809.599182 477.958984 828.036987 443.016418 844.987854 L 458.926422 858.816162 C 461.602905 861.04657 462.346344 861.04657 465.32019 859.41095 C 478.40509 851.827637 490.151733 844.244385 501.452332 836.215027 Z M 389.338623 784.172852 C 395.286316 789.228394 399.449677 794.135254 404.059143 800.231628 L 405.546051 800.231628 L 413.724091 794.432617 L 413.872803 792.945679 C 409.412048 786.997986 404.207825 781.793823 398.706207 777.184387 L 397.21933 777.333008 L 389.487335 782.834656 Z M 403.315674 774.805298 C 409.263336 779.860779 413.278015 784.172852 417.887482 790.269226 L 419.37439 790.269226 L 427.106384 784.618958 L 427.255066 783.13208 C 422.794312 777.184387 418.036163 772.426208 412.534576 767.816772 L 411.047668 767.965454 L 403.464355 773.467041 Z M 382.796173 824.468384 C 382.201416 837.701904 380.565796 852.86853 378.632843 861.04657 C 375.807648 872.941895 372.833832 873.834045 368.224396 873.982727 C 362.87149 874.13147 357.518555 873.982727 351.719574 873.685425 L 360.492401 894.502197 C 361.533234 896.881348 361.681946 897.178711 365.547913 897.178711 C 392.461182 897.178711 396.773224 888.257202 401.38266 868.629883 C 404.207825 856.734497 406.735565 828.631714 407.776428 804.692383 L 406.735565 803.354126 L 388.446503 803.800232 L 363.61496 803.800232 C 364.061035 796.960327 364.209686 789.377075 364.209686 781.050293 L 363.168854 780.00946 L 340.865082 780.00946 L 339.824249 781.199036 C 339.824249 789.6745 339.526855 797.109009 339.229492 803.800232 L 323.022034 803.800232 L 302.20517 803.354126 L 300.866974 804.246277 L 300.866974 823.724854 L 301.907806 824.914429 L 323.170746 824.468384 L 336.850403 824.468384 C 335.214783 833.98468 332.53833 841.865356 328.969727 848.705139 C 320.196899 865.358643 306.814636 876.361816 287.335999 886.026794 L 304.138184 898.516907 C 305.625092 899.557739 306.219849 900.003845 306.963318 900.003845 C 307.409393 900.003845 308.00415 899.706482 308.74762 899.260376 C 326.441986 889.446716 340.567688 877.402649 351.124817 857.626648 C 356.329041 847.961731 359.60025 837.404602 361.533234 824.468384 Z"/>
            <path id="path10" fill="#000000" fill-rule="evenodd" stroke="none" d="M 741.047913 282.21991 L 741.047913 124 L 719.274536 124 L 657.099426 147.224976 L 657.099426 180.610779 L 698.710754 164.885559 L 698.710754 282.21991 L 660.970215 282.21991 L 660.970215 312.460754 L 778.546509 312.460754 L 778.546509 282.21991 Z M 550.167908 193.190979 L 550.167908 174.562683 L 511.701569 174.562683 L 511.701569 312.460754 L 552.829102 312.460754 L 552.829102 227.786499 C 552.829102 209.883911 562.022278 202.626099 573.876648 202.626099 C 587.182678 202.626099 592.988892 209.158081 592.988892 227.786499 L 592.988892 312.460754 L 634.116394 312.460754 L 634.116394 219.077087 C 634.116394 186.900879 615.004211 172.143372 590.327698 172.143372 C 572.908997 172.143372 558.635315 178.917297 550.651733 193.190979 Z M 422.430695 172.143372 C 384.206299 172.143372 354.933197 193.916748 354.933197 245.447083 C 354.933197 293.348511 384.932098 314.880005 422.430695 314.880005 C 460.65509 314.880005 489.928192 293.106628 489.928192 241.576294 C 489.928192 193.674805 459.929321 172.143372 422.430695 172.143372 Z M 422.430695 284.639221 C 404.528137 284.639221 397.270325 266.494751 397.270325 243.995483 C 397.270325 215.206299 405.49585 202.384216 422.430695 202.384216 C 440.333252 202.384216 447.591064 220.528687 447.591064 243.027832 C 447.591064 271.575134 439.36554 284.639221 422.430695 284.639221 Z M 304.612488 282.21991 L 304.612488 124 L 282.839111 124 L 220.664001 147.224976 L 220.664001 180.610779 L 262.27536 164.885559 L 262.27536 282.21991 L 224.534821 282.21991 L 224.534821 312.460754 L 342.111084 312.460754 L 342.111084 282.21991 Z"/>
        </g>
    </g>
    <path id="border" fill="none" stroke="#d5d5d5" stroke-width="22" stroke-linecap="round" visibility="hidden" d="M 833.734375 989 L 150.015625 988.9375 L 111.484375 987.96875 L 97.1875 986.796875 L 87.8125 985.5 L 77.078125 983.1875 L 67.90625 980.109375 L 59.0625 975.71875 L 50.796875 970.3125 L 42.9375 963.921875 L 38.140625 959.296875 L 33.84375 954.53125 L 27.8125 946.5625 L 21.734375 936.265625 L 19.109375 930.125 L 16.109375 920.25 L 14.453125 912.078125 L 12.828125 899.375 L 11.8125 884.734375 L 11.296875 869.546875 L 11 821.796875 L 11 178.25 L 11.296875 130.125 L 12 111.75 L 13.203125 97.046875 L 14.96875 85.046875 L 17.46875 74.734375 L 20.875 65.5625 L 24.234375 59.09375 L 27.84375 53.34375 L 31.59375 48.21875 L 35.9375 43.0625 L 40.6875 38.140625 L 45.515625 33.78125 L 50.671875 29.75 L 60.484375 23.453125 L 70.015625 19.0625 L 79.609375 16.15625 L 90.984375 13.984375 L 107.78125 12.234375 L 130.15625 11.296875 L 166.25 11 L 833.6875 11 L 878.5 11.546875 L 902.84375 13.1875 L 914.984375 14.984375 L 922.8125 16.765625 L 930.078125 19.078125 L 936.359375 21.765625 L 943.6875 25.921875 L 951.921875 31.734375 L 956.875 35.890625 L 963.984375 43 L 970.359375 50.84375 L 974.078125 56.3125 L 978.21875 63.625 L 980.90625 69.90625 L 983.21875 77.171875 L 985.015625 85.03125 L 986.390625 93.78125 L 987.765625 108 L 988.6875 130.15625 L 989 166.15625 L 989 833.765625 L 988.84375 860.109375 L 988.171875 884.625 L 986.78125 902.875 L 985.015625 914.9375 L 982.515625 925.25 L 979.15625 934.28125 L 973.984375 943.8125 L 970.203125 949.359375 L 966.203125 954.46875 L 961.84375 959.296875 L 957.046875 963.921875 L 949.1875 970.3125 L 940.796875 975.796875 L 934.328125 979.15625 L 927.71875 981.734375 L 920.3125 983.859375 L 912.078125 985.53125 L 899.375 987.15625 L 884.734375 988.171875 L 869.546875 988.6875 Z"/>
</svg>
