<svg id="logo-w" xmlns="http://www.w3.org/2000/svg" width="174" height="21"><defs><clipPath id="clip-path"><path id="Clip_6" data-name="Clip 6" d="M0 21h174V0H0z" fill="none"/></clipPath></defs><g id="Aviatrix_Logo" data-name="Aviatrix Logo"><path id="Fill_1" data-name="Fill 1" d="M7.541 19.384a14.022 14.022 0 0 1-3.154-.326 7.174 7.174 0 0 1-2.368-.973 4.535 4.535 0 0 1-1.495-1.6A4.57 4.57 0 0 1 0 14.259a4.043 4.043 0 0 1 .609-2.208 5.509 5.509 0 0 1 1.739-1.672 11.548 11.548 0 0 1 2.721-1.211 29.365 29.365 0 0 1 3.561-.843c1.31-.23 2.743-.421 4.257-.57 1.568-.152 3.19-.278 4.82-.374V5.953a3.574 3.574 0 0 0-.315-1.537 3.572 3.572 0 0 0-.879-1.16 5.069 5.069 0 0 0-1.325-.83 9.262 9.262 0 0 0-1.646-.536 13.694 13.694 0 0 0-1.862-.29 21.52 21.52 0 0 0-1.96-.09 19.435 19.435 0 0 0-2.413.138 17.188 17.188 0 0 0-2.034.372c-.617.155-1.226.341-1.81.551-.563.2-1.15.427-1.744.666V1.25A44.961 44.961 0 0 1 5.607.374 24.782 24.782 0 0 1 9.995 0a18.516 18.516 0 0 1 3.673.346 9.348 9.348 0 0 1 2.965 1.108 5.755 5.755 0 0 1 1.979 1.966 5.613 5.613 0 0 1 .721 2.928v12.67h-1.626V16.95a15.336 15.336 0 0 1-2.145.978 22.132 22.132 0 0 1-2.532.775 23.822 23.822 0 0 1-2.735.5 21.873 21.873 0 0 1-2.754.181zm10.166-10.5c-2.847.163-5.314.4-7.333.693a29.643 29.643 0 0 0-4.969 1.1 7.6 7.6 0 0 0-2.828 1.522 2.688 2.688 0 0 0-.9 1.971 2.914 2.914 0 0 0 .439 1.591 3.514 3.514 0 0 0 1.27 1.169 6.788 6.788 0 0 0 2.007.708 13.586 13.586 0 0 0 2.652.237 16.339 16.339 0 0 0 1.792-.1c.624-.069 1.245-.165 1.846-.286s1.224-.269 1.81-.433 1.145-.348 1.682-.551a13.681 13.681 0 0 0 1.437-.638 6.971 6.971 0 0 0 1.1-.695z" transform="translate(37.056 1.615)" fill="#fff"/><path id="Fill_3" data-name="Fill 3" d="M10.785 17.769H8.474L0 0h1.729l7.945 16.657L17.617 0h1.717z" transform="translate(59.611 1.615)" fill="#fff"/><path id="Clip_6-2" data-name="Clip 6" d="M0 21h174V0H0z" fill="none"/><g id="Aviatrix_Logo-2" data-name="Aviatrix Logo" clip-path="url(#clip-path)" fill="#fff"><path id="Fill_5" data-name="Fill 5" d="M0 17.769h1.611V0H0z" transform="translate(83.778 1.615)"/><path id="Fill_7" data-name="Fill 7" d="M7.541 19.384a14.03 14.03 0 0 1-3.155-.326 7.177 7.177 0 0 1-2.366-.973 4.519 4.519 0 0 1-1.495-1.6A4.57 4.57 0 0 1 0 14.259a4.043 4.043 0 0 1 .609-2.208 5.509 5.509 0 0 1 1.739-1.672 11.515 11.515 0 0 1 2.721-1.211 29.365 29.365 0 0 1 3.561-.843c1.31-.23 2.743-.421 4.257-.57 1.568-.152 3.19-.278 4.82-.374V5.953a3.574 3.574 0 0 0-.315-1.537 3.589 3.589 0 0 0-.879-1.16 5.1 5.1 0 0 0-1.325-.83 9.292 9.292 0 0 0-1.646-.536 13.694 13.694 0 0 0-1.862-.29c-.655-.06-1.314-.09-1.96-.09a19.481 19.481 0 0 0-2.414.138 17.3 17.3 0 0 0-2.034.372c-.617.156-1.226.341-1.808.551-.553.2-1.124.417-1.746.666V1.25A44.95 44.95 0 0 1 5.607.374 24.773 24.773 0 0 1 9.993 0a18.524 18.524 0 0 1 3.674.346 9.324 9.324 0 0 1 2.964 1.108 5.748 5.748 0 0 1 1.981 1.966 5.613 5.613 0 0 1 .721 2.928v12.67h-1.626V16.95a15.422 15.422 0 0 1-2.145.978 22.312 22.312 0 0 1-2.532.775 23.758 23.758 0 0 1-2.736.5 21.862 21.862 0 0 1-2.753.181zm10.166-10.5c-2.847.163-5.314.4-7.333.693a29.643 29.643 0 0 0-4.969 1.1 7.6 7.6 0 0 0-2.828 1.522 2.688 2.688 0 0 0-.9 1.971 2.914 2.914 0 0 0 .439 1.591 3.52 3.52 0 0 0 1.268 1.169 6.824 6.824 0 0 0 2.008.708 13.594 13.594 0 0 0 2.654.237 16.366 16.366 0 0 0 1.791-.1c.622-.069 1.243-.165 1.844-.286s1.223-.268 1.813-.433 1.145-.348 1.681-.551a13.681 13.681 0 0 0 1.437-.638 6.981 6.981 0 0 0 1.1-.695z" transform="translate(88.611 1.615)"/><path id="Fill_8" data-name="Fill 8" d="M9.661 1.474v16.295h-1.6V1.474H0V0h17.722v1.474z" transform="translate(111.167 1.615)"/><path id="Fill_9" data-name="Fill 9" d="M11.869 1.532a8.719 8.719 0 0 0-1.677-.132 9.928 9.928 0 0 0-2.666.346 10.585 10.585 0 0 0-2.317.94 11.528 11.528 0 0 0-1.982 1.38 14.3 14.3 0 0 0-1.643 1.672v12.031H0V.441h1.584v3.531a14.665 14.665 0 0 1 1.841-1.6A12.661 12.661 0 0 1 5.52 1.116 12.119 12.119 0 0 1 7.83.3a10.5 10.5 0 0 1 2.5-.3q.442 0 .8.019a13.011 13.011 0 0 1 1.215.12c.178.025.359.055.545.088v1.551q-.367-.114-1.02-.246" transform="translate(133.722 1.615)"/><path id="Fill_10" data-name="Fill 10" d="M0 17.769h1.611V0H0z" transform="translate(148.222 1.615)"/><path id="Fill_11" data-name="Fill 11" d="M9.661 9.738l-7.626 8.031H0l8.656-9.117L.426 0H2.46l7.2 7.6L16.887 0h2.033l-8.23 8.652 8.643 9.117h-2.021z" transform="translate(154.667 1.615)"/><path id="Fill_12" data-name="Fill 12" d="M26.511 14.174L23.7 10.5l-5.2-6.819-1.59-2.073a4.02 4.02 0 0 0-6.431 0L8.894 3.681 3.684 10.5.877 14.174a4.3 4.3 0 0 0 .684 5.926 4 4 0 0 0 2.529.9 4.043 4.043 0 0 0 3.219-1.609l1.585-2.073 4.149-5.431-2.025-4.279 1.721 2.246.956 1.18 4.8 6.284 1.584 2.073A4.046 4.046 0 0 0 23.3 21a4 4 0 0 0 2.529-.9 4.3 4.3 0 0 0 .683-5.922"/></g></g></svg>